<?xml version="1.0" encoding="utf-8"?>
<!-- Generator: Adobe Illustrator 23.0.5, SVG Export Plug-In . SVG Version: 6.00 Build 0)  -->
<svg version="1.1" id="Layer_1" xmlns="http://www.w3.org/2000/svg" xmlns:xlink="http://www.w3.org/1999/xlink" x="0px" y="0px"
	 viewBox="0 0 841.89 595.28" style="enable-background:new 0 0 841.89 595.28;" xml:space="preserve">
<style type="text/css">
	.st0{fill:#FFFFFF;}
	.st1{fill:#053945;}
</style>
<g>
	<path id="XMLID_1421_" class="st0" d="M420.94,435.62L420.94,435.62c-76.2,0-137.98-61.77-137.98-137.98l0,0
		c0-76.2,61.77-137.98,137.98-137.98l0,0c76.2,0,137.98,61.77,137.98,137.98l0,0C558.92,373.84,497.15,435.62,420.94,435.62z"/>
	<path id="XMLID_1420_" class="st1" d="M399.92,381.04h33.59v-84.11h23.43l2.5-28.16h-25.93c0,0,0-10.51,0-16.04
		c0-6.64,1.33-9.26,7.75-9.26c5.17,0,18.18,0,18.18,0v-29.23c0,0-19.16,0-23.26,0c-24.99,0-36.26,11.01-36.26,32.08
		c0,18.35,0,22.45,0,22.45h-17.47v28.51h17.47V381.04z"/>
</g>
<path id="XMLID_1119_" class="st0" d="M-508.2-50.04L-508.2-50.04c-77.82,0-140.9-63.08-140.9-140.9v0
	c0-77.82,63.08-140.9,140.9-140.9h0c77.82,0,140.9,63.08,140.9,140.9v0C-367.3-113.12-430.38-50.04-508.2-50.04z"/>
<path id="XMLID_1111_" class="st1" d="M-569.77-303.83c-62.35,0-112.89,50.55-112.89,112.9c0,62.35,50.54,112.89,112.89,112.89
	c62.36,0,112.9-50.55,112.9-112.89C-456.87-253.28-507.42-303.83-569.77-303.83z M-569.77-284.2c21.41,0,41.1,7.33,56.86,19.5
	c-11.33,14.62-26.98,26.17-46.91,34.62c-9.56-17.51-20.48-34.58-32.81-51.15C-585.31-283.1-577.67-284.2-569.77-284.2z
	 M-611.84-274.05c12.53,16.39,23.62,33.29,33.27,50.63c-22.87,6.73-50.16,10.19-81.71,10.41
	C-653.76-239.69-635.8-261.87-611.84-274.05z M-663.03-190.94c0-0.8,0.11-1.59,0.13-2.4c36.2-0.05,67.44-4.21,93.6-12.44
	c2.19,4.47,4.29,8.96,6.3,13.48c-31.79,9.93-57.99,30.3-78.43,60.96C-654.9-147.51-663.03-168.29-663.03-190.94z M-569.77-97.67
	c-21.57,0-41.41-7.43-57.23-19.78c18.52-29.06,42.18-47.97,71.48-56.71c8.72,22.77,15.14,46.19,19.23,70.18
	C-546.71-99.95-557.96-97.67-569.77-97.67z M-518-113.41c-4.12-22.13-10.16-43.77-18.06-64.88c17.64-2.49,37.07-1.85,58.32,1.85
	C-481.86-150.24-496.82-127.59-518-113.41z M-543.59-196.88c-2.29-5.3-4.67-10.58-7.22-15.81c21.73-9.41,39.19-22.19,52.2-38.4
	c12.69,15,20.66,34.04,21.84,54.89C-501-200.16-523.28-200.37-543.59-196.88z"/>
<path id="XMLID_1451_" class="st0" d="M-456.87,641.19L-456.87,641.19c-77.82,0-140.9-63.08-140.9-140.9l0,0
	c0-77.82,63.08-140.9,140.9-140.9h0c77.82,0,140.9,63.08,140.9,140.9l0,0C-315.97,578.1-379.06,641.19-456.87,641.19z"/>
<path id="XMLID_1450_" class="st1" d="M-531.94,547.45c13.63,8.74,29.82,13.84,47.22,13.84c57.19,0,89.5-48.3,87.56-91.63
	c6.02-4.34,11.24-9.76,15.37-15.95c-5.53,2.45-11.46,4.11-17.69,4.85c6.36-3.8,11.24-9.84,13.54-17.04
	c-5.95,3.53-12.55,6.1-19.56,7.48c-5.62-5.99-13.63-9.73-22.49-9.73c-19.88,0-34.49,18.55-30,37.82
	c-25.6-1.28-48.3-13.55-63.49-32.19c-8.07,13.85-4.19,31.96,9.53,41.13c-5.05-0.16-9.81-1.55-13.96-3.86
	c-0.33,14.27,9.89,27.62,24.71,30.6c-4.34,1.18-9.09,1.45-13.91,0.52c3.91,12.24,15.29,21.14,28.77,21.39
	C-499.29,544.85-515.6,549.39-531.94,547.45z"/>
<g>
	<path id="XMLID_1343_" class="st0" d="M228.92-75.04L228.92-75.04c-76.2,0-137.98-61.77-137.98-137.98l0,0
		c0-76.2,61.77-137.98,137.98-137.98h0c76.2,0,137.98,61.77,137.98,137.98l0,0C366.9-136.82,305.12-75.04,228.92-75.04z"/>
	<path id="XMLID_1342_" class="st1" d="M184.77-200.2c2.15,0.88,4.09,0.04,4.71-2.35c0.43-1.65,1.46-5.82,1.92-7.56
		c0.63-2.36,0.39-3.19-1.36-5.24c-3.79-4.47-6.21-10.27-6.21-18.47c0-23.79,17.8-45.08,46.34-45.08c25.28,0,39.16,15.45,39.16,36.08
		c0,27.14-12.01,50.04-29.84,50.04c-9.85,0-17.22-8.14-14.86-18.13c2.84-11.93,8.31-24.8,8.31-33.41c0-7.71-4.14-14.13-12.69-14.13
		c-10.07,0-18.16,10.41-18.16,24.36c0,8.88,3.01,14.9,3.01,14.9s-10.3,43.65-12.11,51.29c-3.6,15.22-0.54,33.88-0.28,35.77
		c0.16,1.12,1.59,1.38,2.24,0.54c0.93-1.21,12.92-16.02,16.99-30.81c1.16-4.19,6.63-25.87,6.63-25.87
		c3.27,6.24,12.83,11.73,22.99,11.73c30.26,0,50.79-27.58,50.79-64.51c0-27.92-23.64-53.92-59.59-53.92
		c-44.72,0-67.27,32.06-67.27,58.8C165.49-219.96,171.62-205.56,184.77-200.2z"/>
</g>
</svg>
