<?xml version="1.0" encoding="utf-8"?>
<!-- Generator: Adobe Illustrator 23.0.5, SVG Export Plug-In . SVG Version: 6.00 Build 0)  -->
<svg version="1.1" id="Layer_1" xmlns="http://www.w3.org/2000/svg" xmlns:xlink="http://www.w3.org/1999/xlink" x="0px" y="0px"
	 viewBox="0 0 841.9 595.3" style="enable-background:new 0 0 841.9 595.3;" xml:space="preserve">
<style type="text/css">
	.st0{fill:#FFFFFF;}
	.st1{fill:#053945;}
</style>
<g>
	<path id="XMLID_1451_" class="st0" d="M420.9,438.5L420.9,438.5c-77.8,0-140.9-63.1-140.9-140.9l0,0c0-77.8,63.1-140.9,140.9-140.9
		l0,0c77.8,0,140.9,63.1,140.9,140.9l0,0C561.8,375.5,498.8,438.5,420.9,438.5z"/>
	<path id="XMLID_1450_" class="st1" d="M345.9,344.8c13.6,8.7,29.8,13.8,47.2,13.8c57.2,0,89.5-48.3,87.6-91.6
		c6-4.3,11.2-9.8,15.4-15.9c-5.5,2.4-11.5,4.1-17.7,4.9c6.4-3.8,11.2-9.8,13.5-17c-6,3.5-12.5,6.1-19.6,7.5
		c-5.6-6-13.6-9.7-22.5-9.7c-19.9,0-34.5,18.6-30,37.8c-25.6-1.3-48.3-13.6-63.5-32.2c-8.1,13.9-4.2,32,9.5,41.1
		c-5-0.2-9.8-1.6-14-3.9c-0.3,14.3,9.9,27.6,24.7,30.6c-4.3,1.2-9.1,1.5-13.9,0.5c3.9,12.2,15.3,21.1,28.8,21.4
		C378.5,342.2,362.2,346.7,345.9,344.8z"/>
</g>
</svg>
