<?xml version="1.0" encoding="utf-8"?>
<!-- Generator: Adobe Illustrator 23.0.5, SVG Export Plug-In . SVG Version: 6.00 Build 0)  -->
<svg version="1.1" id="Layer_1" xmlns="http://www.w3.org/2000/svg" xmlns:xlink="http://www.w3.org/1999/xlink" x="0px" y="0px"
	 viewBox="0 0 841.89 595.28" style="enable-background:new 0 0 841.89 595.28;" xml:space="preserve">
<style type="text/css">
	.st0{fill:#FFFFFF;}
	.st1{fill:#053945;}
</style>
<g>
	<path id="XMLID_1421_" class="st0" d="M-339.77,249.69L-339.77,249.69c-76.2,0-137.98-61.77-137.98-137.98l0,0
		c0-76.2,61.77-137.98,137.98-137.98l0,0c76.2,0,137.98,61.77,137.98,137.98l0,0C-201.79,187.91-263.57,249.69-339.77,249.69z"/>
	<path id="XMLID_1420_" class="st1" d="M-360.79,195.11h33.59V111h23.43l2.5-28.16h-25.93c0,0,0-10.51,0-16.04
		c0-6.64,1.33-9.26,7.75-9.26c5.17,0,18.18,0,18.18,0V28.31c0,0-19.16,0-23.26,0c-24.99,0-36.26,11.01-36.26,32.08
		c0,18.35,0,22.45,0,22.45h-17.47v28.51h17.47V195.11z"/>
</g>
<path id="XMLID_1119_" class="st0" d="M-508.2-50.04L-508.2-50.04c-77.82,0-140.9-63.08-140.9-140.9v0
	c0-77.82,63.08-140.9,140.9-140.9h0c77.82,0,140.9,63.08,140.9,140.9v0C-367.3-113.12-430.38-50.04-508.2-50.04z"/>
<path id="XMLID_1111_" class="st1" d="M-569.77-303.83c-62.35,0-112.89,50.55-112.89,112.9c0,62.35,50.54,112.89,112.89,112.89
	c62.36,0,112.9-50.55,112.9-112.89C-456.87-253.28-507.42-303.83-569.77-303.83z M-569.77-284.2c21.41,0,41.1,7.33,56.86,19.5
	c-11.33,14.62-26.98,26.17-46.91,34.62c-9.56-17.51-20.48-34.58-32.81-51.15C-585.31-283.1-577.67-284.2-569.77-284.2z
	 M-611.84-274.05c12.53,16.39,23.62,33.29,33.27,50.63c-22.87,6.73-50.16,10.19-81.71,10.41
	C-653.76-239.69-635.8-261.87-611.84-274.05z M-663.03-190.94c0-0.8,0.11-1.59,0.13-2.4c36.2-0.05,67.44-4.21,93.6-12.44
	c2.19,4.47,4.29,8.96,6.3,13.48c-31.79,9.93-57.99,30.3-78.43,60.96C-654.9-147.51-663.03-168.29-663.03-190.94z M-569.77-97.67
	c-21.57,0-41.41-7.43-57.23-19.78c18.52-29.06,42.18-47.97,71.48-56.71c8.72,22.77,15.14,46.19,19.23,70.18
	C-546.71-99.95-557.96-97.67-569.77-97.67z M-518-113.41c-4.12-22.13-10.16-43.77-18.06-64.88c17.64-2.49,37.07-1.85,58.32,1.85
	C-481.86-150.24-496.82-127.59-518-113.41z M-543.59-196.88c-2.29-5.3-4.67-10.58-7.22-15.81c21.73-9.41,39.19-22.19,52.2-38.4
	c12.69,15,20.66,34.04,21.84,54.89C-501-200.16-523.28-200.37-543.59-196.88z"/>
<g>
	<path id="XMLID_1451_" class="st0" d="M-100.2-50.04L-100.2-50.04c-77.82,0-140.9-63.08-140.9-140.9l0,0
		c0-77.82,63.08-140.9,140.9-140.9h0c77.82,0,140.9,63.08,140.9,140.9l0,0C40.7-113.12-22.38-50.04-100.2-50.04z"/>
	<path id="XMLID_1450_" class="st1" d="M-175.27-143.77c13.63,8.74,29.82,13.84,47.22,13.84c57.19,0,89.5-48.3,87.56-91.63
		c6.02-4.34,11.24-9.76,15.37-15.95c-5.53,2.45-11.46,4.11-17.69,4.85c6.36-3.8,11.24-9.84,13.54-17.04
		c-5.95,3.53-12.55,6.1-19.56,7.48c-5.62-5.99-13.63-9.73-22.49-9.73c-19.88,0-34.49,18.55-30,37.82
		c-25.6-1.28-48.3-13.55-63.49-32.19c-8.07,13.85-4.19,31.96,9.53,41.13c-5.05-0.16-9.81-1.55-13.96-3.86
		c-0.33,14.27,9.89,27.62,24.71,30.6c-4.34,1.18-9.09,1.45-13.91,0.52c3.91,12.24,15.29,21.14,28.77,21.39
		C-142.61-146.37-158.93-141.84-175.27-143.77z"/>
</g>
<g>
	<path id="XMLID_1343_" class="st0" d="M228.92-75.04L228.92-75.04c-76.2,0-137.98-61.77-137.98-137.98l0,0
		c0-76.2,61.77-137.98,137.98-137.98h0c76.2,0,137.98,61.77,137.98,137.98l0,0C366.9-136.82,305.12-75.04,228.92-75.04z"/>
	<path id="XMLID_1342_" class="st1" d="M184.77-200.2c2.15,0.88,4.09,0.04,4.71-2.35c0.43-1.65,1.46-5.82,1.92-7.56
		c0.63-2.36,0.39-3.19-1.36-5.24c-3.79-4.47-6.21-10.27-6.21-18.47c0-23.79,17.8-45.08,46.34-45.08c25.28,0,39.16,15.45,39.16,36.08
		c0,27.14-12.01,50.04-29.84,50.04c-9.85,0-17.22-8.14-14.86-18.13c2.84-11.93,8.31-24.8,8.31-33.41c0-7.71-4.14-14.13-12.69-14.13
		c-10.07,0-18.16,10.41-18.16,24.36c0,8.88,3.01,14.9,3.01,14.9s-10.3,43.65-12.11,51.29c-3.6,15.22-0.54,33.88-0.28,35.77
		c0.16,1.12,1.59,1.38,2.24,0.54c0.93-1.21,12.92-16.02,16.99-30.81c1.16-4.19,6.63-25.87,6.63-25.87
		c3.27,6.24,12.83,11.73,22.99,11.73c30.26,0,50.79-27.58,50.79-64.51c0-27.92-23.64-53.92-59.59-53.92
		c-44.72,0-67.27,32.06-67.27,58.8C165.49-219.96,171.62-205.56,184.77-200.2z"/>
</g>
<g>
	<path d="M-200.8,382.28c0,1.76-0.55,3.45-1.64,5.05c-1.09,1.61-2.46,2.98-4.08,4.12c-8.39,5.83-13.62,9.45-15.67,10.88
		c-0.22,0.16-0.7,0.5-1.42,1.02c-0.73,0.53-1.33,0.95-1.81,1.27c-0.48,0.32-1.06,0.69-1.74,1.09c-0.68,0.4-1.32,0.7-1.93,0.9
		c-0.6,0.2-1.16,0.3-1.67,0.3h-0.03h-0.03c-0.51,0-1.07-0.1-1.67-0.3c-0.6-0.2-1.25-0.5-1.93-0.9c-0.68-0.4-1.26-0.76-1.74-1.09
		c-0.48-0.32-1.08-0.75-1.81-1.27c-0.73-0.52-1.2-0.86-1.42-1.02c-2.03-1.43-4.96-3.46-8.77-6.11c-3.82-2.65-6.11-4.24-6.86-4.77
		c-1.38-0.94-2.69-2.23-3.92-3.87c-1.23-1.64-1.84-3.16-1.84-4.57c0-1.74,0.46-3.19,1.39-4.35c0.93-1.16,2.25-1.74,3.97-1.74h49.29
		c1.45,0,2.71,0.52,3.77,1.57C-201.33,379.54-200.8,380.81-200.8,382.28z M-200.8,392.12v26.58c0,1.47-0.53,2.73-1.57,3.78
		c-1.05,1.05-2.31,1.57-3.78,1.57h-49.29c-1.47,0-2.73-0.53-3.78-1.57c-1.05-1.05-1.57-2.31-1.57-3.78v-26.58
		c0.98,1.09,2.11,2.06,3.38,2.91c8.08,5.49,13.63,9.34,16.64,11.55c1.27,0.94,2.3,1.67,3.1,2.19c0.79,0.53,1.85,1.06,3.16,1.61
		c1.32,0.55,2.54,0.82,3.68,0.82h0.03h0.03c1.14,0,2.37-0.27,3.68-0.82c1.32-0.55,2.37-1.08,3.16-1.61c0.79-0.52,1.82-1.25,3.1-2.19
		c3.79-2.75,9.35-6.6,16.67-11.55C-202.88,394.17-201.76,393.19-200.8,392.12z"/>
</g>
<g>
	<path d="M-369.46,507.03c0,2.43-0.37,4.43-1.1,5.99l-12.19,25.91c-0.36,0.74-0.89,1.32-1.59,1.74c-0.7,0.42-1.46,0.64-2.26,0.64
		c-0.8,0-1.56-0.21-2.26-0.64c-0.7-0.42-1.22-1-1.56-1.74l-12.22-25.91c-0.74-1.56-1.1-3.56-1.1-5.99c0-4.73,1.67-8.77,5.02-12.12
		c3.35-3.35,7.39-5.02,12.12-5.02c4.73,0,8.77,1.67,12.12,5.02C-371.14,498.25-369.46,502.29-369.46,507.03z M-380.55,513.09
		c1.67-1.67,2.51-3.69,2.51-6.06c0-2.37-0.84-4.39-2.51-6.06c-1.67-1.67-3.69-2.51-6.06-2.51c-2.37,0-4.39,0.84-6.06,2.51
		c-1.67,1.67-2.51,3.7-2.51,6.06c0,2.37,0.84,4.39,2.51,6.06c1.67,1.67,3.69,2.51,6.06,2.51
		C-384.24,515.6-382.22,514.76-380.55,513.09z"/>
</g>
<g>
	<path d="M-550.43,414.76v13.93c0,0.29-0.11,0.54-0.32,0.75c-0.21,0.21-0.46,0.32-0.75,0.32h-7.5v5.36c0,0.89-0.31,1.65-0.94,2.28
		c-0.63,0.63-1.38,0.94-2.28,0.94h-32.14c-0.89,0-1.65-0.31-2.28-0.94s-0.94-1.38-0.94-2.28v-5.36h-7.5c-0.29,0-0.54-0.11-0.75-0.32
		c-0.21-0.21-0.32-0.46-0.32-0.75v-13.93c0-1.76,0.63-3.28,1.89-4.54c1.26-1.26,2.77-1.89,4.54-1.89h2.14v-18.21
		c0-0.89,0.31-1.65,0.94-2.28s1.38-0.94,2.28-0.94h22.5c0.89,0,1.88,0.22,2.95,0.67c1.07,0.45,1.92,0.98,2.54,1.61l5.09,5.09
		c0.62,0.63,1.16,1.47,1.61,2.55c0.45,1.07,0.67,2.05,0.67,2.95v8.57h2.14c1.76,0,3.28,0.63,4.54,1.89
		C-551.06,411.49-550.43,413-550.43,414.76z M-593.28,412.62h30v-12.86h-5.36c-0.89,0-1.65-0.31-2.28-0.94
		c-0.63-0.63-0.94-1.38-0.94-2.28v-5.36h-21.43V412.62z M-593.28,434.05h30v-8.57h-30V434.05z M-555.35,416.27
		c0.42-0.42,0.64-0.93,0.64-1.51c0-0.58-0.21-1.08-0.64-1.51c-0.42-0.42-0.93-0.64-1.51-0.64c-0.58,0-1.08,0.21-1.51,0.64
		c-0.42,0.42-0.64,0.93-0.64,1.51c0,0.58,0.21,1.08,0.64,1.51c0.42,0.42,0.93,0.64,1.51,0.64
		C-556.27,416.9-555.77,416.69-555.35,416.27z"/>
</g>
<g>
	<path d="M-166.21,559.98c0,0.6-0.11,1.39-0.34,2.36c-0.22,0.97-0.46,1.74-0.7,2.29c-0.47,1.12-1.83,2.3-4.09,3.55
		c-2.1,1.14-4.17,1.71-6.23,1.71c-0.6,0-1.19-0.04-1.77-0.12c-0.58-0.08-1.22-0.22-1.93-0.42c-0.7-0.2-1.23-0.36-1.57-0.49
		c-0.35-0.12-0.97-0.35-1.86-0.69c-0.89-0.34-1.44-0.54-1.64-0.6c-2.19-0.78-4.14-1.71-5.86-2.78c-2.83-1.76-5.78-4.17-8.84-7.23
		c-3.06-3.06-5.47-6-7.23-8.84c-1.07-1.72-2-3.67-2.78-5.86c-0.07-0.2-0.27-0.75-0.6-1.64c-0.33-0.89-0.56-1.51-0.69-1.86
		c-0.12-0.35-0.28-0.87-0.49-1.57c-0.2-0.7-0.34-1.34-0.42-1.93c-0.08-0.58-0.12-1.17-0.12-1.77c0-2.05,0.57-4.13,1.71-6.23
		c1.25-2.25,2.43-3.62,3.55-4.09c0.56-0.25,1.32-0.48,2.29-0.7c0.97-0.22,1.76-0.33,2.36-0.33c0.31,0,0.55,0.03,0.7,0.1
		c0.4,0.13,0.99,0.98,1.77,2.55c0.25,0.42,0.58,1.03,1,1.81c0.42,0.78,0.81,1.49,1.17,2.13c0.36,0.64,0.7,1.23,1.04,1.79
		c0.07,0.09,0.26,0.37,0.59,0.84c0.32,0.47,0.56,0.87,0.72,1.19c0.16,0.32,0.23,0.64,0.23,0.95c0,0.45-0.32,1-0.95,1.67
		c-0.64,0.67-1.33,1.28-2.08,1.84c-0.75,0.56-1.44,1.15-2.08,1.77c-0.64,0.63-0.95,1.14-0.95,1.54c0,0.2,0.06,0.45,0.17,0.75
		c0.11,0.3,0.21,0.53,0.28,0.69c0.08,0.16,0.23,0.42,0.47,0.8c0.23,0.38,0.36,0.59,0.38,0.64c1.7,3.06,3.64,5.68,5.83,7.87
		c2.19,2.19,4.81,4.13,7.87,5.83c0.04,0.02,0.26,0.15,0.64,0.38c0.38,0.23,0.65,0.39,0.8,0.47c0.16,0.08,0.38,0.17,0.69,0.28
		c0.3,0.11,0.55,0.17,0.75,0.17c0.4,0,0.91-0.32,1.54-0.95c0.62-0.64,1.22-1.33,1.77-2.08c0.56-0.75,1.17-1.44,1.84-2.08
		c0.67-0.64,1.23-0.95,1.67-0.95c0.31,0,0.63,0.08,0.95,0.23c0.32,0.16,0.72,0.4,1.19,0.72c0.47,0.32,0.75,0.52,0.84,0.59
		c0.56,0.33,1.15,0.68,1.79,1.04c0.64,0.36,1.34,0.75,2.13,1.17c0.78,0.42,1.38,0.76,1.81,1c1.56,0.78,2.41,1.37,2.54,1.77
		C-166.25,559.44-166.21,559.67-166.21,559.98z"/>
</g>
<g>
	<path d="M-14.24,468.24c2.3,3.94,3.45,8.24,3.45,12.91c0,4.67-1.15,8.97-3.45,12.91c-2.3,3.94-5.42,7.06-9.36,9.36
		c-3.94,2.3-8.24,3.45-12.91,3.45c-4.67,0-8.97-1.15-12.91-3.45c-3.94-2.3-7.06-5.42-9.36-9.36c-2.3-3.94-3.45-8.24-3.45-12.91
		c0-4.66,1.15-8.97,3.45-12.91c2.3-3.94,5.42-7.06,9.36-9.36c3.94-2.3,8.24-3.45,12.91-3.45c4.67,0,8.97,1.15,12.91,3.45
		C-19.66,461.18-16.54,464.3-14.24,468.24z M-20.74,490.29c1.63-2.79,2.44-5.84,2.44-9.14c0-3.3-0.82-6.35-2.44-9.14
		c-1.63-2.79-3.84-5-6.63-6.63c-2.79-1.63-5.84-2.44-9.14-2.44c-3.3,0-6.35,0.82-9.14,2.44c-2.79,1.63-5,3.84-6.63,6.63
		c-1.63,2.79-2.44,5.84-2.44,9.14c0,3.3,0.81,6.35,2.44,9.14c1.63,2.79,3.84,5,6.63,6.63c2.79,1.63,5.84,2.44,9.14,2.44
		c3.3,0,6.35-0.81,9.14-2.44C-24.58,495.29-22.37,493.08-20.74,490.29z M-32.22,469.36v15c0,0.31-0.1,0.57-0.3,0.77
		c-0.2,0.2-0.46,0.3-0.77,0.3h-10.71c-0.31,0-0.57-0.1-0.77-0.3c-0.2-0.2-0.3-0.46-0.3-0.77v-2.14c0-0.31,0.1-0.57,0.3-0.77
		c0.2-0.2,0.46-0.3,0.77-0.3h7.5v-11.79c0-0.31,0.1-0.57,0.3-0.77c0.2-0.2,0.46-0.3,0.77-0.3h2.14c0.31,0,0.57,0.1,0.77,0.3
		C-32.32,468.8-32.22,469.05-32.22,469.36z"/>
</g>
</svg>
