<?xml version="1.0" encoding="utf-8"?>
<!-- Generator: Adobe Illustrator 23.0.5, SVG Export Plug-In . SVG Version: 6.00 Build 0)  -->
<svg version="1.1" id="Layer_1" xmlns="http://www.w3.org/2000/svg" xmlns:xlink="http://www.w3.org/1999/xlink" x="0px" y="0px"
	 viewBox="0 0 50 50" style="enable-background:new 0 0 50 50;" xml:space="preserve">
<style type="text/css">
	.st0{fill:#C6C4C4;}
</style>
<g>
	<path class="st0" d="M-75.14,11.54c0,1.47-0.46,2.87-1.37,4.21c-0.91,1.34-2.05,2.48-3.4,3.43c-6.99,4.86-11.35,7.88-13.06,9.07
		c-0.19,0.13-0.58,0.42-1.19,0.85c-0.6,0.44-1.11,0.79-1.51,1.06c-0.4,0.27-0.88,0.57-1.45,0.91c-0.57,0.33-1.1,0.59-1.6,0.75
		c-0.5,0.17-0.97,0.25-1.39,0.25h-0.03h-0.03c-0.43,0-0.89-0.08-1.39-0.25c-0.5-0.17-1.04-0.42-1.6-0.75
		c-0.57-0.34-1.05-0.64-1.45-0.91c-0.4-0.27-0.9-0.62-1.51-1.06c-0.61-0.44-1-0.72-1.19-0.85c-1.69-1.19-4.13-2.89-7.31-5.09
		c-3.18-2.2-5.09-3.53-5.72-3.98c-1.15-0.78-2.24-1.86-3.26-3.22c-1.02-1.37-1.53-2.64-1.53-3.81c0-1.45,0.39-2.66,1.16-3.63
		c0.77-0.97,1.87-1.45,3.31-1.45h41.07c1.21,0,2.26,0.44,3.14,1.31C-75.58,9.26-75.14,10.31-75.14,11.54z M-75.14,19.74v22.15
		c0,1.23-0.44,2.28-1.31,3.15c-0.87,0.87-1.92,1.31-3.15,1.31h-41.07c-1.23,0-2.28-0.44-3.15-1.31c-0.87-0.87-1.31-1.92-1.31-3.15
		V19.74c0.82,0.91,1.76,1.72,2.82,2.43c6.73,4.58,11.36,7.78,13.87,9.63c1.06,0.78,1.92,1.39,2.58,1.83
		c0.66,0.44,1.54,0.88,2.64,1.34c1.1,0.46,2.12,0.68,3.07,0.68h0.03h0.03c0.95,0,1.97-0.23,3.07-0.68c1.1-0.46,1.98-0.9,2.64-1.34
		c0.66-0.44,1.52-1.05,2.58-1.83c3.16-2.29,7.79-5.5,13.9-9.63C-76.87,21.44-75.94,20.63-75.14,19.74z"/>
</g>
<g>
	<path class="st0" d="M-71.4-36.37c0,2.3-0.35,4.18-1.04,5.65l-11.5,24.45c-0.34,0.69-0.84,1.24-1.5,1.64
		c-0.66,0.4-1.37,0.6-2.13,0.6c-0.76,0-1.47-0.2-2.13-0.6c-0.66-0.4-1.15-0.95-1.47-1.64l-11.53-24.45
		c-0.7-1.47-1.04-3.36-1.04-5.65c0-4.46,1.58-8.28,4.74-11.44c3.16-3.16,6.97-4.74,11.44-4.74c4.46,0,8.28,1.58,11.44,4.74
		C-72.98-44.65-71.4-40.83-71.4-36.37z M-81.85-30.65c1.58-1.58,2.37-3.49,2.37-5.72c0-2.23-0.79-4.14-2.37-5.72
		c-1.58-1.58-3.49-2.37-5.72-2.37c-2.23,0-4.14,0.79-5.72,2.37c-1.58,1.58-2.37,3.49-2.37,5.72c0,2.23,0.79,4.14,2.37,5.72
		c1.58,1.58,3.49,2.37,5.72,2.37C-85.34-28.28-83.43-29.07-81.85-30.65z"/>
</g>
<g>
	<path class="st0" d="M50,26.92v12.5c0,0.26-0.1,0.49-0.29,0.68c-0.19,0.19-0.42,0.29-0.68,0.29h-6.73v4.81
		c0,0.8-0.28,1.48-0.84,2.04c-0.56,0.56-1.24,0.84-2.04,0.84H10.58c-0.8,0-1.48-0.28-2.04-0.84c-0.56-0.56-0.84-1.24-0.84-2.04
		v-4.81H0.96c-0.26,0-0.49-0.1-0.68-0.29C0.09,39.91,0,39.68,0,39.42v-12.5c0-1.58,0.57-2.94,1.7-4.07c1.13-1.13,2.49-1.7,4.07-1.7
		h1.92V4.81c0-0.8,0.28-1.48,0.84-2.04s1.24-0.84,2.04-0.84h20.19c0.8,0,1.68,0.2,2.64,0.6c0.96,0.4,1.72,0.88,2.28,1.44l4.57,4.57
		c0.56,0.56,1.04,1.32,1.44,2.28c0.4,0.96,0.6,1.84,0.6,2.64v7.69h1.92c1.58,0,2.94,0.57,4.07,1.7C49.43,23.98,50,25.34,50,26.92z
		 M11.54,25h26.92V13.46h-4.81c-0.8,0-1.48-0.28-2.04-0.84c-0.56-0.56-0.84-1.24-0.84-2.04V5.77H11.54V25z M11.54,44.23h26.92v-7.69
		H11.54V44.23z M45.58,28.28c0.38-0.38,0.57-0.83,0.57-1.35s-0.19-0.97-0.57-1.35C45.2,25.19,44.75,25,44.23,25
		c-0.52,0-0.97,0.19-1.35,0.57c-0.38,0.38-0.57,0.83-0.57,1.35s0.19,0.97,0.57,1.35c0.38,0.38,0.83,0.57,1.35,0.57
		C44.75,28.85,45.2,28.66,45.58,28.28z"/>
</g>
<g>
	<path d="M49.19-42.23c0,0.1-0.02,0.24-0.06,0.4c-0.04,0.17-0.08,0.3-0.12,0.39c-0.08,0.19-0.31,0.39-0.69,0.6
		c-0.36,0.19-0.71,0.29-1.06,0.29c-0.1,0-0.2-0.01-0.3-0.02c-0.1-0.01-0.21-0.04-0.33-0.07c-0.12-0.03-0.21-0.06-0.27-0.08
		c-0.06-0.02-0.16-0.06-0.32-0.12c-0.15-0.06-0.24-0.09-0.28-0.1c-0.37-0.13-0.7-0.29-1-0.47c-0.48-0.3-0.98-0.71-1.5-1.23
		c-0.52-0.52-0.93-1.02-1.23-1.5c-0.18-0.29-0.34-0.62-0.47-1c-0.01-0.03-0.05-0.13-0.1-0.28c-0.06-0.15-0.1-0.26-0.12-0.32
		c-0.02-0.06-0.05-0.15-0.08-0.27c-0.03-0.12-0.06-0.23-0.07-0.33c-0.01-0.1-0.02-0.2-0.02-0.3c0-0.35,0.1-0.7,0.29-1.06
		c0.21-0.38,0.41-0.61,0.6-0.69c0.09-0.04,0.22-0.08,0.39-0.12c0.17-0.04,0.3-0.06,0.4-0.06c0.05,0,0.09,0.01,0.12,0.02
		c0.07,0.02,0.17,0.17,0.3,0.43c0.04,0.07,0.1,0.17,0.17,0.31c0.07,0.13,0.14,0.25,0.2,0.36c0.06,0.11,0.12,0.21,0.18,0.3
		c0.01,0.02,0.04,0.06,0.1,0.14c0.05,0.08,0.1,0.15,0.12,0.2c0.03,0.06,0.04,0.11,0.04,0.16c0,0.08-0.05,0.17-0.16,0.28
		c-0.11,0.11-0.23,0.22-0.35,0.31c-0.13,0.09-0.24,0.2-0.35,0.3c-0.11,0.11-0.16,0.19-0.16,0.26c0,0.03,0.01,0.08,0.03,0.13
		c0.02,0.05,0.04,0.09,0.05,0.12c0.01,0.03,0.04,0.07,0.08,0.14c0.04,0.06,0.06,0.1,0.07,0.11c0.29,0.52,0.62,0.97,0.99,1.34
		c0.37,0.37,0.82,0.7,1.34,0.99c0.01,0,0.04,0.03,0.11,0.07c0.06,0.04,0.11,0.07,0.14,0.08c0.03,0.01,0.07,0.03,0.12,0.05
		c0.05,0.02,0.09,0.03,0.13,0.03c0.07,0,0.16-0.05,0.26-0.16c0.11-0.11,0.21-0.23,0.3-0.35c0.09-0.13,0.2-0.24,0.31-0.35
		c0.11-0.11,0.21-0.16,0.28-0.16c0.05,0,0.11,0.01,0.16,0.04c0.05,0.03,0.12,0.07,0.2,0.12c0.08,0.05,0.13,0.09,0.14,0.1
		c0.09,0.06,0.2,0.12,0.3,0.18c0.11,0.06,0.23,0.13,0.36,0.2c0.13,0.07,0.24,0.13,0.31,0.17c0.27,0.13,0.41,0.23,0.43,0.3
		C49.19-42.33,49.19-42.29,49.19-42.23z"/>
</g>
<g>
	<path d="M75.03-57.84c0.39,0.67,0.59,1.4,0.59,2.19c0,0.79-0.2,1.53-0.59,2.2c-0.39,0.67-0.92,1.2-1.59,1.59
		c-0.67,0.39-1.4,0.59-2.2,0.59c-0.79,0-1.53-0.2-2.19-0.59c-0.67-0.39-1.2-0.92-1.59-1.59c-0.39-0.67-0.59-1.4-0.59-2.2
		c0-0.79,0.2-1.52,0.59-2.19c0.39-0.67,0.92-1.2,1.59-1.59c0.67-0.39,1.4-0.59,2.19-0.59c0.79,0,1.53,0.2,2.2,0.59
		C74.11-59.04,74.64-58.51,75.03-57.84z M73.93-54.09c0.28-0.47,0.42-0.99,0.42-1.55c0-0.56-0.14-1.08-0.42-1.55
		c-0.28-0.47-0.65-0.85-1.13-1.13c-0.47-0.28-0.99-0.42-1.55-0.42c-0.56,0-1.08,0.14-1.55,0.42c-0.47,0.28-0.85,0.65-1.13,1.13
		c-0.28,0.47-0.42,0.99-0.42,1.55c0,0.56,0.14,1.08,0.42,1.55c0.28,0.47,0.65,0.85,1.13,1.13c0.47,0.28,0.99,0.42,1.55,0.42
		c0.56,0,1.08-0.14,1.55-0.42C73.28-53.24,73.65-53.61,73.93-54.09z M71.98-57.65v2.55c0,0.05-0.02,0.1-0.05,0.13
		c-0.03,0.03-0.08,0.05-0.13,0.05h-1.82c-0.05,0-0.1-0.02-0.13-0.05c-0.03-0.03-0.05-0.08-0.05-0.13v-0.36
		c0-0.05,0.02-0.1,0.05-0.13c0.03-0.03,0.08-0.05,0.13-0.05h1.28v-2c0-0.05,0.02-0.1,0.05-0.13c0.03-0.03,0.08-0.05,0.13-0.05h0.36
		c0.05,0,0.1,0.02,0.13,0.05C71.96-57.74,71.98-57.7,71.98-57.65z"/>
</g>
</svg>
