<?xml version="1.0" encoding="utf-8"?>
<!-- Generator: Adobe Illustrator 23.0.5, SVG Export Plug-In . SVG Version: 6.00 Build 0)  -->
<svg version="1.1" id="Layer_1" xmlns="http://www.w3.org/2000/svg" xmlns:xlink="http://www.w3.org/1999/xlink" x="0px" y="0px"
	 viewBox="0 0 50 50" style="enable-background:new 0 0 50 50;" xml:space="preserve">
<style type="text/css">
	.st0{fill:#C6C4C4;}
</style>
<g>
	<path d="M43.31-72.45c0,0.3-0.09,0.59-0.28,0.86c-0.19,0.27-0.42,0.51-0.69,0.7c-1.43,0.99-2.32,1.61-2.66,1.85
		c-0.04,0.03-0.12,0.08-0.24,0.17c-0.12,0.09-0.23,0.16-0.31,0.22c-0.08,0.06-0.18,0.12-0.3,0.19c-0.12,0.07-0.22,0.12-0.33,0.15
		c-0.1,0.03-0.2,0.05-0.28,0.05h-0.01H38.2c-0.09,0-0.18-0.02-0.28-0.05c-0.1-0.03-0.21-0.09-0.33-0.15
		c-0.12-0.07-0.21-0.13-0.3-0.19c-0.08-0.05-0.18-0.13-0.31-0.22c-0.12-0.09-0.2-0.15-0.24-0.17c-0.35-0.24-0.84-0.59-1.49-1.04
		c-0.65-0.45-1.04-0.72-1.17-0.81c-0.24-0.16-0.46-0.38-0.67-0.66c-0.21-0.28-0.31-0.54-0.31-0.78c0-0.3,0.08-0.54,0.24-0.74
		c0.16-0.2,0.38-0.3,0.67-0.3h8.38c0.25,0,0.46,0.09,0.64,0.27C43.22-72.92,43.31-72.71,43.31-72.45z M43.31-70.78v4.52
		c0,0.25-0.09,0.47-0.27,0.64c-0.18,0.18-0.39,0.27-0.64,0.27h-8.38c-0.25,0-0.47-0.09-0.64-0.27c-0.18-0.18-0.27-0.39-0.27-0.64
		v-4.52c0.17,0.19,0.36,0.35,0.58,0.5c1.37,0.93,2.32,1.59,2.83,1.96c0.22,0.16,0.39,0.28,0.53,0.37c0.13,0.09,0.31,0.18,0.54,0.27
		c0.22,0.09,0.43,0.14,0.63,0.14h0.01h0.01c0.19,0,0.4-0.05,0.63-0.14c0.22-0.09,0.4-0.18,0.54-0.27c0.13-0.09,0.31-0.21,0.53-0.37
		c0.65-0.47,1.59-1.12,2.84-1.96C42.96-70.43,43.15-70.6,43.31-70.78z"/>
</g>
<g>
	<path class="st0" d="M41.17,16.91c0,2.3-0.35,4.18-1.04,5.65l-11.5,24.45c-0.34,0.69-0.84,1.24-1.5,1.64
		c-0.66,0.4-1.37,0.6-2.13,0.6c-0.76,0-1.47-0.2-2.13-0.6c-0.66-0.4-1.15-0.95-1.47-1.64L9.87,22.57c-0.7-1.47-1.04-3.36-1.04-5.65
		c0-4.46,1.58-8.28,4.74-11.44C16.72,2.32,20.53,0.74,25,0.74c4.46,0,8.28,1.58,11.44,4.74C39.59,8.64,41.17,12.45,41.17,16.91z
		 M30.72,22.63c1.58-1.58,2.37-3.49,2.37-5.72c0-2.23-0.79-4.14-2.37-5.72C29.14,9.62,27.23,8.83,25,8.83
		c-2.23,0-4.14,0.79-5.72,2.37c-1.58,1.58-2.37,3.49-2.37,5.72c0,2.23,0.79,4.14,2.37,5.72C20.86,24.21,22.77,25,25,25
		C27.23,25,29.14,24.21,30.72,22.63z"/>
</g>
<g>
	<path d="M-16.15-66.93v2.37c0,0.05-0.02,0.09-0.05,0.13c-0.04,0.04-0.08,0.05-0.13,0.05h-1.28v0.91c0,0.15-0.05,0.28-0.16,0.39
		c-0.11,0.11-0.24,0.16-0.39,0.16h-5.47c-0.15,0-0.28-0.05-0.39-0.16c-0.11-0.11-0.16-0.24-0.16-0.39v-0.91h-1.28
		c-0.05,0-0.09-0.02-0.13-0.05c-0.04-0.04-0.05-0.08-0.05-0.13v-2.37c0-0.3,0.11-0.56,0.32-0.77c0.21-0.21,0.47-0.32,0.77-0.32h0.36
		v-3.1c0-0.15,0.05-0.28,0.16-0.39c0.11-0.11,0.24-0.16,0.39-0.16h3.83c0.15,0,0.32,0.04,0.5,0.11c0.18,0.08,0.33,0.17,0.43,0.27
		l0.87,0.87c0.11,0.11,0.2,0.25,0.27,0.43c0.08,0.18,0.11,0.35,0.11,0.5v1.46h0.36c0.3,0,0.56,0.11,0.77,0.32
		C-16.25-67.49-16.15-67.23-16.15-66.93z M-23.43-67.3h5.1v-2.19h-0.91c-0.15,0-0.28-0.05-0.39-0.16c-0.11-0.11-0.16-0.24-0.16-0.39
		v-0.91h-3.64V-67.3z M-23.43-63.65h5.1v-1.46h-5.1V-63.65z M-16.98-66.67c0.07-0.07,0.11-0.16,0.11-0.26c0-0.1-0.04-0.18-0.11-0.26
		c-0.07-0.07-0.16-0.11-0.26-0.11c-0.1,0-0.18,0.04-0.26,0.11c-0.07,0.07-0.11,0.16-0.11,0.26c0,0.1,0.04,0.18,0.11,0.26
		c0.07,0.07,0.16,0.11,0.26,0.11C-17.14-66.57-17.06-66.6-16.98-66.67z"/>
</g>
<g>
	<path d="M49.19-42.23c0,0.1-0.02,0.24-0.06,0.4c-0.04,0.17-0.08,0.3-0.12,0.39c-0.08,0.19-0.31,0.39-0.69,0.6
		c-0.36,0.19-0.71,0.29-1.06,0.29c-0.1,0-0.2-0.01-0.3-0.02c-0.1-0.01-0.21-0.04-0.33-0.07c-0.12-0.03-0.21-0.06-0.27-0.08
		c-0.06-0.02-0.16-0.06-0.32-0.12c-0.15-0.06-0.24-0.09-0.28-0.1c-0.37-0.13-0.7-0.29-1-0.47c-0.48-0.3-0.98-0.71-1.5-1.23
		c-0.52-0.52-0.93-1.02-1.23-1.5c-0.18-0.29-0.34-0.62-0.47-1c-0.01-0.03-0.05-0.13-0.1-0.28c-0.06-0.15-0.1-0.26-0.12-0.32
		c-0.02-0.06-0.05-0.15-0.08-0.27c-0.03-0.12-0.06-0.23-0.07-0.33c-0.01-0.1-0.02-0.2-0.02-0.3c0-0.35,0.1-0.7,0.29-1.06
		c0.21-0.38,0.41-0.61,0.6-0.69c0.09-0.04,0.22-0.08,0.39-0.12c0.17-0.04,0.3-0.06,0.4-0.06c0.05,0,0.09,0.01,0.12,0.02
		c0.07,0.02,0.17,0.17,0.3,0.43c0.04,0.07,0.1,0.17,0.17,0.31c0.07,0.13,0.14,0.25,0.2,0.36c0.06,0.11,0.12,0.21,0.18,0.3
		c0.01,0.02,0.04,0.06,0.1,0.14c0.05,0.08,0.1,0.15,0.12,0.2c0.03,0.06,0.04,0.11,0.04,0.16c0,0.08-0.05,0.17-0.16,0.28
		c-0.11,0.11-0.23,0.22-0.35,0.31c-0.13,0.09-0.24,0.2-0.35,0.3c-0.11,0.11-0.16,0.19-0.16,0.26c0,0.03,0.01,0.08,0.03,0.13
		c0.02,0.05,0.04,0.09,0.05,0.12c0.01,0.03,0.04,0.07,0.08,0.14c0.04,0.06,0.06,0.1,0.07,0.11c0.29,0.52,0.62,0.97,0.99,1.34
		c0.37,0.37,0.82,0.7,1.34,0.99c0.01,0,0.04,0.03,0.11,0.07c0.06,0.04,0.11,0.07,0.14,0.08c0.03,0.01,0.07,0.03,0.12,0.05
		c0.05,0.02,0.09,0.03,0.13,0.03c0.07,0,0.16-0.05,0.26-0.16c0.11-0.11,0.21-0.23,0.3-0.35c0.09-0.13,0.2-0.24,0.31-0.35
		c0.11-0.11,0.21-0.16,0.28-0.16c0.05,0,0.11,0.01,0.16,0.04c0.05,0.03,0.12,0.07,0.2,0.12c0.08,0.05,0.13,0.09,0.14,0.1
		c0.09,0.06,0.2,0.12,0.3,0.18c0.11,0.06,0.23,0.13,0.36,0.2c0.13,0.07,0.24,0.13,0.31,0.17c0.27,0.13,0.41,0.23,0.43,0.3
		C49.19-42.33,49.19-42.29,49.19-42.23z"/>
</g>
<g>
	<path d="M75.03-57.84c0.39,0.67,0.59,1.4,0.59,2.19c0,0.79-0.2,1.53-0.59,2.2c-0.39,0.67-0.92,1.2-1.59,1.59
		c-0.67,0.39-1.4,0.59-2.2,0.59c-0.79,0-1.53-0.2-2.19-0.59c-0.67-0.39-1.2-0.92-1.59-1.59c-0.39-0.67-0.59-1.4-0.59-2.2
		c0-0.79,0.2-1.52,0.59-2.19c0.39-0.67,0.92-1.2,1.59-1.59c0.67-0.39,1.4-0.59,2.19-0.59c0.79,0,1.53,0.2,2.2,0.59
		C74.11-59.04,74.64-58.51,75.03-57.84z M73.93-54.09c0.28-0.47,0.42-0.99,0.42-1.55c0-0.56-0.14-1.08-0.42-1.55
		c-0.28-0.47-0.65-0.85-1.13-1.13c-0.47-0.28-0.99-0.42-1.55-0.42c-0.56,0-1.08,0.14-1.55,0.42c-0.47,0.28-0.85,0.65-1.13,1.13
		c-0.28,0.47-0.42,0.99-0.42,1.55c0,0.56,0.14,1.08,0.42,1.55c0.28,0.47,0.65,0.85,1.13,1.13c0.47,0.28,0.99,0.42,1.55,0.42
		c0.56,0,1.08-0.14,1.55-0.42C73.28-53.24,73.65-53.61,73.93-54.09z M71.98-57.65v2.55c0,0.05-0.02,0.1-0.05,0.13
		c-0.03,0.03-0.08,0.05-0.13,0.05h-1.82c-0.05,0-0.1-0.02-0.13-0.05c-0.03-0.03-0.05-0.08-0.05-0.13v-0.36
		c0-0.05,0.02-0.1,0.05-0.13c0.03-0.03,0.08-0.05,0.13-0.05h1.28v-2c0-0.05,0.02-0.1,0.05-0.13c0.03-0.03,0.08-0.05,0.13-0.05h0.36
		c0.05,0,0.1,0.02,0.13,0.05C71.96-57.74,71.98-57.7,71.98-57.65z"/>
</g>
</svg>
