<?xml version="1.0" encoding="utf-8"?>
<!-- Generator: Adobe Illustrator 23.0.5, SVG Export Plug-In . SVG Version: 6.00 Build 0)  -->
<svg version="1.1" id="Layer_1" xmlns="http://www.w3.org/2000/svg" xmlns:xlink="http://www.w3.org/1999/xlink" x="0px" y="0px"
	 viewBox="0 0 50 50" style="enable-background:new 0 0 50 50;" xml:space="preserve">
<style type="text/css">
	.st0{fill:#C6C4C4;}
</style>
<g>
	<path class="st0" d="M-75.14,11.54c0,1.47-0.46,2.87-1.37,4.21c-0.91,1.34-2.05,2.48-3.4,3.43c-6.99,4.86-11.35,7.88-13.06,9.07
		c-0.19,0.13-0.58,0.42-1.19,0.85c-0.6,0.44-1.11,0.79-1.51,1.06c-0.4,0.27-0.88,0.57-1.45,0.91c-0.57,0.33-1.1,0.59-1.6,0.75
		c-0.5,0.17-0.97,0.25-1.39,0.25h-0.03h-0.03c-0.43,0-0.89-0.08-1.39-0.25c-0.5-0.17-1.04-0.42-1.6-0.75
		c-0.57-0.34-1.05-0.64-1.45-0.91c-0.4-0.27-0.9-0.62-1.51-1.06c-0.61-0.44-1-0.72-1.19-0.85c-1.69-1.19-4.13-2.89-7.31-5.09
		c-3.18-2.2-5.09-3.53-5.72-3.98c-1.15-0.78-2.24-1.86-3.26-3.22c-1.02-1.37-1.53-2.64-1.53-3.81c0-1.45,0.39-2.66,1.16-3.63
		c0.77-0.97,1.87-1.45,3.31-1.45h41.07c1.21,0,2.26,0.44,3.14,1.31C-75.58,9.26-75.14,10.31-75.14,11.54z M-75.14,19.74v22.15
		c0,1.23-0.44,2.28-1.31,3.15c-0.87,0.87-1.92,1.31-3.15,1.31h-41.07c-1.23,0-2.28-0.44-3.15-1.31c-0.87-0.87-1.31-1.92-1.31-3.15
		V19.74c0.82,0.91,1.76,1.72,2.82,2.43c6.73,4.58,11.36,7.78,13.87,9.63c1.06,0.78,1.92,1.39,2.58,1.83
		c0.66,0.44,1.54,0.88,2.64,1.34c1.1,0.46,2.12,0.68,3.07,0.68h0.03h0.03c0.95,0,1.97-0.23,3.07-0.68c1.1-0.46,1.98-0.9,2.64-1.34
		c0.66-0.44,1.52-1.05,2.58-1.83c3.16-2.29,7.79-5.5,13.9-9.63C-76.87,21.44-75.94,20.63-75.14,19.74z"/>
</g>
<g>
	<path class="st0" d="M-71.4-36.37c0,2.3-0.35,4.18-1.04,5.65l-11.5,24.45c-0.34,0.69-0.84,1.24-1.5,1.64
		c-0.66,0.4-1.37,0.6-2.13,0.6c-0.76,0-1.47-0.2-2.13-0.6c-0.66-0.4-1.15-0.95-1.47-1.64l-11.53-24.45
		c-0.7-1.47-1.04-3.36-1.04-5.65c0-4.46,1.58-8.28,4.74-11.44c3.16-3.16,6.97-4.74,11.44-4.74c4.46,0,8.28,1.58,11.44,4.74
		C-72.98-44.65-71.4-40.83-71.4-36.37z M-81.85-30.65c1.58-1.58,2.37-3.49,2.37-5.72c0-2.23-0.79-4.14-2.37-5.72
		c-1.58-1.58-3.49-2.37-5.72-2.37c-2.23,0-4.14,0.79-5.72,2.37c-1.58,1.58-2.37,3.49-2.37,5.72c0,2.23,0.79,4.14,2.37,5.72
		c1.58,1.58,3.49,2.37,5.72,2.37C-85.34-28.28-83.43-29.07-81.85-30.65z"/>
</g>
<g>
	<path class="st0" d="M-37.57-81.17v12.5c0,0.26-0.1,0.49-0.29,0.68c-0.19,0.19-0.42,0.29-0.68,0.29h-6.73v4.81
		c0,0.8-0.28,1.48-0.84,2.04c-0.56,0.56-1.24,0.84-2.04,0.84h-28.85c-0.8,0-1.48-0.28-2.04-0.84c-0.56-0.56-0.84-1.24-0.84-2.04
		v-4.81h-6.73c-0.26,0-0.49-0.1-0.68-0.29c-0.19-0.19-0.29-0.42-0.29-0.68v-12.5c0-1.58,0.57-2.94,1.7-4.07
		c1.13-1.13,2.49-1.7,4.07-1.7h1.92v-16.35c0-0.8,0.28-1.48,0.84-2.04s1.24-0.84,2.04-0.84h20.19c0.8,0,1.68,0.2,2.64,0.6
		c0.96,0.4,1.72,0.88,2.28,1.44l4.57,4.57c0.56,0.56,1.04,1.32,1.44,2.28c0.4,0.96,0.6,1.84,0.6,2.64v7.69h1.92
		c1.58,0,2.94,0.57,4.07,1.7C-38.14-84.11-37.57-82.75-37.57-81.17z M-76.03-83.09h26.92v-11.54h-4.81c-0.8,0-1.48-0.28-2.04-0.84
		c-0.56-0.56-0.84-1.24-0.84-2.04v-4.81h-19.23V-83.09z M-76.03-63.86h26.92v-7.69h-26.92V-63.86z M-41.99-79.82
		c0.38-0.38,0.57-0.83,0.57-1.35s-0.19-0.97-0.57-1.35c-0.38-0.38-0.83-0.57-1.35-0.57c-0.52,0-0.97,0.19-1.35,0.57
		c-0.38,0.38-0.57,0.83-0.57,1.35s0.19,0.97,0.57,1.35c0.38,0.38,0.83,0.57,1.35,0.57C-42.82-79.24-42.37-79.43-41.99-79.82z"/>
</g>
<g>
	<path class="st0" d="M33.14-53.22c0,0.64-0.12,1.47-0.36,2.5c-0.24,1.03-0.49,1.84-0.75,2.43c-0.5,1.18-1.94,2.44-4.33,3.76
		c-2.23,1.21-4.43,1.81-6.6,1.81c-0.64,0-1.27-0.04-1.88-0.12c-0.62-0.08-1.3-0.23-2.04-0.44c-0.75-0.21-1.3-0.39-1.67-0.51
		c-0.37-0.13-1.02-0.37-1.97-0.73c-0.95-0.36-1.53-0.57-1.74-0.64c-2.32-0.83-4.39-1.81-6.21-2.95c-3.01-1.87-6.13-4.43-9.37-7.67
		c-3.24-3.24-5.8-6.37-7.67-9.38c-1.14-1.82-2.12-3.89-2.95-6.21c-0.07-0.21-0.28-0.79-0.64-1.74c-0.36-0.95-0.6-1.6-0.73-1.97
		c-0.13-0.37-0.3-0.92-0.51-1.67c-0.21-0.75-0.36-1.43-0.44-2.04c-0.08-0.62-0.12-1.24-0.12-1.88c0-2.18,0.6-4.38,1.81-6.6
		c1.33-2.39,2.58-3.84,3.76-4.33c0.59-0.26,1.4-0.51,2.43-0.75c1.03-0.24,1.86-0.36,2.5-0.36c0.33,0,0.58,0.04,0.75,0.11
		c0.43,0.14,1.05,1.04,1.88,2.7c0.26,0.45,0.62,1.09,1.07,1.92c0.45,0.83,0.86,1.58,1.24,2.26c0.38,0.67,0.75,1.31,1.1,1.9
		c0.07,0.1,0.28,0.39,0.62,0.89c0.34,0.5,0.6,0.92,0.76,1.26c0.17,0.34,0.25,0.68,0.25,1.01c0,0.47-0.34,1.07-1.01,1.78
		c-0.67,0.71-1.41,1.36-2.2,1.95c-0.79,0.59-1.53,1.22-2.2,1.88c-0.67,0.66-1.01,1.21-1.01,1.63c0,0.21,0.06,0.48,0.18,0.8
		c0.12,0.32,0.22,0.56,0.3,0.73c0.08,0.17,0.25,0.45,0.5,0.85c0.25,0.4,0.38,0.63,0.41,0.68c1.8,3.24,3.86,6.03,6.18,8.35
		c2.32,2.32,5.1,4.38,8.35,6.18c0.05,0.02,0.27,0.16,0.67,0.41c0.4,0.25,0.69,0.42,0.85,0.5c0.17,0.08,0.41,0.18,0.73,0.3
		c0.32,0.12,0.59,0.18,0.8,0.18c0.43,0,0.97-0.34,1.63-1.01c0.66-0.67,1.29-1.41,1.88-2.2c0.59-0.79,1.24-1.53,1.95-2.2
		c0.71-0.68,1.3-1.01,1.78-1.01c0.33,0,0.67,0.08,1.01,0.25c0.34,0.17,0.76,0.42,1.26,0.76c0.5,0.34,0.79,0.55,0.89,0.62
		c0.59,0.35,1.22,0.72,1.9,1.1c0.67,0.38,1.43,0.79,2.26,1.24c0.83,0.45,1.47,0.81,1.92,1.07c1.66,0.83,2.56,1.46,2.7,1.88
		C33.11-53.8,33.14-53.55,33.14-53.22z"/>
</g>
<g>
	<path class="st0" d="M46.65,12.45C48.88,16.28,50,20.46,50,25c0,4.54-1.12,8.72-3.35,12.55c-2.24,3.83-5.27,6.86-9.1,9.1
		C33.72,48.88,29.54,50,25,50c-4.54,0-8.72-1.12-12.55-3.35c-3.83-2.23-6.86-5.27-9.1-9.1C1.12,33.72,0,29.54,0,25
		c0-4.54,1.12-8.72,3.35-12.55c2.23-3.83,5.27-6.86,9.1-9.1C16.28,1.12,20.46,0,25,0c4.54,0,8.72,1.12,12.55,3.35
		C41.38,5.59,44.41,8.62,46.65,12.45z M40.33,33.89c1.58-2.71,2.38-5.67,2.38-8.89c0-3.21-0.79-6.17-2.38-8.89
		c-1.58-2.71-3.73-4.86-6.45-6.45C31.17,8.08,28.21,7.29,25,7.29c-3.21,0-6.17,0.79-8.89,2.38c-2.71,1.58-4.86,3.73-6.44,6.45
		C8.08,18.83,7.29,21.79,7.29,25c0,3.21,0.79,6.17,2.38,8.89c1.58,2.71,3.73,4.86,6.44,6.45c2.71,1.58,5.68,2.38,8.89,2.38
		c3.21,0,6.17-0.79,8.89-2.38C36.6,38.75,38.75,36.6,40.33,33.89z M29.17,13.54v14.58c0,0.3-0.1,0.55-0.29,0.75
		c-0.2,0.2-0.44,0.29-0.75,0.29H17.71c-0.3,0-0.55-0.1-0.75-0.29c-0.2-0.2-0.29-0.44-0.29-0.75v-2.08c0-0.3,0.1-0.55,0.29-0.75
		c0.2-0.2,0.44-0.29,0.75-0.29H25V13.54c0-0.3,0.1-0.55,0.29-0.75c0.19-0.2,0.44-0.29,0.75-0.29h2.08c0.3,0,0.55,0.1,0.75,0.29
		C29.07,12.99,29.17,13.24,29.17,13.54z"/>
</g>
</svg>
